<svg version="1.1" id="Warstwa_1" xmlns="http://www.w3.org/2000/svg" x="0" y="0" width="749.8" height="633.8" xml:space="preserve"><style>.st0{opacity:.27;fill:#abacac}.st1{fill:#4f5253}.st2{fill:#abacac}.st3{fill:#f79133}.st4,.st5{fill:none;stroke:#808285;stroke-width:4.436;stroke-linecap:round;stroke-linejoin:round;stroke-miterlimit:10}.st5{stroke:#a7a9ac}.st6{fill:#fbe500}.st9{fill:#3896c5}.st10{fill:#abd039}.st13{fill:#9db63b}.st15{fill:none;stroke:#abacac;stroke-width:.5011;stroke-miterlimit:10}.st16{fill:#e6e7e8}.st17{fill:#d1d3d4}.st18{fill:none;stroke:#abacac;stroke-width:.4621;stroke-miterlimit:10}.st19{fill:#27aae1}.st20{fill:#7f9139}.st21{fill:none;stroke:#7bcfd8;stroke-width:.7991;stroke-miterlimit:10}.st24{fill:#ef3f42}.st38{fill:#859a3b}.st40{fill:#d67528}</style><ellipse class="st0" cx="218.7" cy="574.9" rx="161.5" ry="8.9"/><ellipse class="st0" cx="547.4" cy="586.9" rx="134.5" ry="7.4"/><circle class="st1" cx="475.2" cy="572" r="11.7"/><path class="st2" d="M467 556.9l3.2 13h9.7l1.9-13.3z"/><circle class="st2" cx="475.2" cy="571.7" r="5.6"/><circle class="st1" cx="508.7" cy="571.6" r="11.7"/><path class="st2" d="M500.4 556.4l3.3 13h9.7l1.9-13.3z"/><circle class="st2" cx="508.7" cy="571.3" r="5.6"/><circle class="st1" cx="586.2" cy="571.8" r="11.7"/><path class="st2" d="M578 556.7l3.2 13h9.7l2-13.4z"/><circle class="st2" cx="586.2" cy="571.5" r="5.6"/><circle class="st1" cx="619.9" cy="571.9" r="11.7"/><path class="st2" d="M611.7 556.8l3.3 13h9.7l1.9-13.3z"/><circle class="st2" cx="620" cy="571.6" r="5.6"/><path class="st3" d="M626.8 322.1l-1 25.1-129.4-1.2.9-19.6 39.7-4.3z"/><path class="st3" d="M501.6 346v83.4l120.5-.5v-82.4z"/><path class="st4" d="M679.9 254.7l-29.2.5-39.4 49.2-193.5 29.2 5.1 75.2s.9 19 9.3 20.9l144.3 7.4s13.9 1.9 17.2-8.4"/><path class="st5" d="M506.9 326.6L511 431m22.8-108.6l4.1 110m52.9-118.3l-9.7 120.6m38.5-125.3l-13.5 125.7L639 543.2s7.9 17.6-11.1 14.8h-134"/><path class="st4" d="M571.8 436.1l33.9 107.6s6.5 11.6-6.5 13.9H458.6"/><path class="st6" d="M513.3 246.3l-3.2-19.5-100 36.3 7.3 16.4z"/><path class="st6" d="M509.7 247.8l11.5 53.4-73.5 26.5-24.3-51.3z"/><path fill="#eace1a" d="M456.9 246.3l24.6 69 10.2-3.9-24.7-68.8z"/><path fill="#3e9fd9" d="M486.7 276.1l1.5 12.7 109.9-12v-11.5z"/><path class="st9" d="M492.2 287.9l3.8 40.6 102.6-13.2-3.4-38.5z"/><path class="st10" d="M423.4 355l-6.9-17.5 77.4-26.9 2.1 17.9.9 17.5h5.1l-.9 43.6-52.9 19.7-21-56zm5.1 0l67.1-24.3M464.4 52.9l-6 12 70.5 37.6 7.3-12.4z"/><path class="st10" d="M462 64.3l-24.5 44.6 67.1 35.4 22.2-42.7z"/><path fill="none" stroke="#9db63b" stroke-width="9" stroke-miterlimit="10" d="M500.3 71.7L470.8 126"/><path opacity=".41" fill="none" stroke="#9db63b" stroke-width="9" stroke-miterlimit="10" d="M458.6 69.9l65.4 35"/><path class="st13" d="M500.7 67s-4.7-15.8-12-7.3c0 0-2.6 1.7-2.6 4.7l29.1 15s10.7-12.4-2.1-11.5l-8.5 1.7s-.5-6-3.9-2.6z"/><path class="st13" d="M529.3 81.5l6.7 1.3s-17.8 12-32.2-10.4c0 0 12 8.5 26.6 4.6l-1.1 4.5z"/><path class="st13" d="M504 72.1s-8.9 9.1 8.1 26.8l-.4-6.1 4.8 1.1c.1.1-12.7-13.1-12.5-21.8z"/><path fill="#cc3b4d" d="M560.5 202l5.8-.9 20.4 58.7-7.6 6.4z"/><ellipse class="st15" cx="541" cy="209.9" rx="2.3" ry="1.5"/><path class="st16" d="M526.1 208.7l18-47.2 84.3 21-18.2 100.2-81-28.9z"/><path class="st17" d="M628.4 182.5l7 1.2-11.8 93.8-13.4 5.2z"/><ellipse transform="rotate(-70.944 566.073 172.354)" class="st17" cx="566.1" cy="172.4" rx="2.3" ry="2.6"/><ellipse transform="rotate(-70.944 601.99 181.063)" class="st17" cx="602" cy="181.1" rx="2.3" ry="2.6"/><path class="st18" d="M565.7 171.3s19.1-57 39.3-57.8c0 0 12.6-2.9-3 67.6"/><path class="st18" d="M574.5 169.1s9.3-51.7 27.3-54.9c0 0 10.6-6.4 10.9 31.6l-1.9 32.4"/><path class="st19" d="M515.7 273.4l4.7 50.4 8.9-1.3-3.5-49.8z"/><path class="st10" d="M56.4 504.4v15.8h100.4v-15.8s-99.4.9-100.4 0zm6.9 19.6h86.6l-2.1 46.8-79.1.5zm307.8-37.2v19h-106v-18.7c0 .1 106.4-.3 106-.3zm-4.4 19l.8 64.8-101.3.2 1.1-65z"/><path class="st20" d="M266.9 506.2h100.2v4.4H266.9z"/><path class="st21" d="M161.6 443.3h113.7m-50.5-2.1s9.2-4.4 12.4-5.2c0 0 8.9-4.1 8.1 2.6 0 0-1.2 5.1-3.8 7.4l1.5 4.6s1.1 5.5-4.7 3.8l-9.6-3.8s11.2 21.9.3 37.8l-1.8-3.5-4.9.8s9.5-6.4 1.8-34.5c0 0 4.6 20.5-12.2 26.8l.3-3.8-4.1-1.2s12.9-4.9 11-22.5c0 0-7.2 3.2-11.9 4.3 0 0-7.8 2.9-8.7-2.9l-.2-6-.5-3.1s-3.5-8.4 4.1-6.9l16.8 6c0-.1 1.4-2.8 6.1-.7z"/><circle class="st21" cx="221.6" cy="445.2" r="3"/><path class="st10" d="M186.5 367.9h89.2v-15.6h-89.2s.2 15.8 0 15.6z"/><path class="st21" d="M231.5 352.3v67.8m-40.9-40.2h81.3"/><path class="st10" d="M190.6 367.9V421h82v-53.1h-82z"/><path d="M229 350.7s-10.8-5-14.7 3.8c0 0-3.2 9.7-8.4 8.1l5.2 1.6s-1.1 1.6-3.2 1.8c0 0 4.7 2.7 7.9-4.1 0 0 2.3-11.5 7.7-9.7l4.5 1.6 4.3.9 2.7-1.1s4.5-2-2-3.6l-4 .7z" fill="#81973a"/><path class="st9" d="M238.3 314.2v9.7l57.5.8v-10.4c.1 0-57.2-.4-57.5-.1z"/><path class="st19" d="M280.2 314.6s.6-1.5-2.5-3.4c0 0 1.2-4.5-.8-5.1 0 0-1.1-1.4-5.3 1.9l-3.8 3s-1.9-1.4-3.9.1l-4.4-3.4s-4.4-2.5-4.4 1.1c0 0 0 1.7.6 2.7 0 0-1.5 1.2-1.4 3.2l25.9-.1z"/><path fill="#328caf" d="M292.2 324.5l-3.7 29.6h-42.3l-3.9-30.1z"/><path class="st24" d="M260.7 353.7v11.4l67.5 1v-12.2s-67.2-.5-67.5-.2z"/><path class="st24" d="M324.9 365.8l-.2 41.6-59.3-.7-.1-41.5z"/><path class="st3" d="M355.1 427.1v-19.6l-86.8-.7.9 18.1z"/><circle cx="337" cy="431.5" r="4.2" fill="none" stroke="#7bcfd8" stroke-width=".937" stroke-miterlimit="10"/><path class="st3" d="M347.6 426.7l-78.4-1.8-2.4 23.2 3.8 39 65.9-.3h3.8z"/><path class="st6" d="M160 433.1l5.7 57.2h103.8l7-57.2"/><path class="st20" d="M63.8 526.3l96.8-1 .6-5.6H62.8z"/><path class="st10" d="M415.8 337.3l7.1 17.6 73.5-24.5-2.1-19.9z"/><path fill="none" stroke="#859a3b" stroke-width="10" stroke-miterlimit="10" d="M465.7 320.4l26.5 71.8"/><path class="st5" d="M480.4 330.8l4.2 99.3m-33.9-95.2l-33.4-1.4"/><path class="st20" d="M103.1 571.1l-.4-66.5h9.6l.3 66.7c-.1 0-9 .4-9.5-.2z"/><path class="st16" d="M139.1 474.8h132V498h-132v-23.2zm7.1 24.1l-.5 72.4h122.6l1.2-72.1c.1-.1-124 .4-123.3-.3z"/><path fill="#bcbcbc" d="M145.6 497.7h124.1v7.6H145.6z"/><path fill="none" stroke="#f9ad32" stroke-width="11" stroke-miterlimit="10" d="M296.2 407.3v79.1"/><path class="st6" d="M157.5 420.6l-.1 13.1 122.2-.6.5-12.4c0-.1-122.2-.5-122.6-.1z"/><path fill="none" stroke="#fff200" stroke-width="12" stroke-miterlimit="10" d="M218.6 420.6v53.8"/><path fill="none" stroke="#f15a29" stroke-width="6.646" stroke-miterlimit="10" d="M291.1 407l.4-53.1"/><path fill="none" stroke="#bcbec0" stroke-width="9" stroke-miterlimit="10" d="M202.1 571.1l.4-96.3"/><path class="st20" d="M199.8 536.7l-8.5-1.6c-1.7-.3-2.8-1.9-2.5-3.6l5.1-27.4c.3-1.7 1.9-2.8 3.6-2.5l8.5 1.6c1.7.3 2.8 1.9 2.5 3.6l-5.1 27.4c-.3 1.7-2 2.8-3.6 2.5z"/><path d="M183.2 537.4l-9-3.2c-1.8-.6-2.7-2.6-2.1-4.3l10.2-29c.6-1.8 2.6-2.7 4.3-2.1l9 3.2c1.8.6 2.7 2.6 2.1 4.3l-10.2 29c-.6 1.8-2.6 2.8-4.3 2.1z" fill="#9ab33b"/><path fill="none" stroke="#27aae1" stroke-width="7.168" stroke-miterlimit="10" d="M266.5 353.5l.4-38.7"/><path fill="#3384a3" d="M242.3 324.3h49.9l-.7 2.9h-48.8z"/><path fill="#be1e2d" d="M265.2 365.5h59.4v4.8h-59.4z"/><path opacity=".79" fill="#b65f27" d="M279.8 431.1l66.8 1.5.5-5.7-66.6-2z"/><path d="M276.5 433.1l-.7 4.9H160.4v-4.9h116.1z" fill="#d6b729"/><path class="st38" d="M227.1 419.1v-67h9.8v67.5c.1-.1-9.3-1-9.8-.5z"/><path opacity=".56" fill="#81973a" d="M190.7 367.9h74.4v7.8h-74.4z"/><path class="st38" d="M231.2 351.4s-2-22.1-10.2-26.9c0 0-3.4-2.5-6.8 2.5 0 0-6.6 5.6-2.3 11.3.1 0 10.1 14.2 19.3 13.1zm5.7-.2s19.2-9.9 15.1-19.9c0 0-4.3-11.5-12.7-7.5 0 0-5.9 3.6-7.7 26"/><path class="st40" d="M502 346l120.1.4-.5 7.3H502.2c0 .1-.2-8.6-.2-7.7z"/><path fill="#9fb73b" d="M427.2 353.3l69.7-23.2v9.2l-67 21.2z"/><path class="st10" d="M491.7 216.6l68.5-14.3 18.6 63.9-12.2 9.8-61.5 2.1z"/><path class="st15" d="M511.2 215.1s-3.7-43.8 10.4-45.7c0 0 8.2-4.6 19.2 39.3"/><ellipse class="st38" cx="512.1" cy="215.7" rx="2.3" ry="1.5"/><path class="st15" d="M546.5 204.7c-19.5-43.8-25.3-35.6-25.3-35.6-14.6 6.4-4.3 41.7-4.3 41.7"/><ellipse class="st38" cx="541" cy="210.8" rx="2.3" ry="1.5"/><path fill="#a4c13a" d="M560.5 202l-9 2.2 15.2 71.7 12.4-9.7z"/><path opacity=".62" fill="#eace1a" d="M424.1 277.1l75.3-26.8 1.8 10.1-73.9 25z"/><path fill="#2f86a8" d="M492.3 288.3l101.5-11.4 1.3.8.4 4.8-102.6 11.4z"/><path class="st40" d="M556.4 433.6l.4-111.3 7.3.5v110.6c0 .1-8.6.2-7.7.2z"/><path class="st5" d="M631.2 405.5l-209.7-4.7m215.3-27.4l-216.7 3.8M640 342.4l-187.9 8.8h-33.4"/><path d="M714.7 255.6h-30.6L647 303.8l-17.2 115.5s-2.8 16.7-11.6 17.6L465.5 429s-7.9-5.6-8.8-13l-5.6-81.2 192.6-29.7" fill="none" stroke="#bcbec0" stroke-width="4.436" stroke-linecap="round" stroke-linejoin="round" stroke-miterlimit="10"/><path class="st5" d="M562.1 318.2l-1.9 115.1"/></svg>